<svg fill="rgba(240,255,128,0.577)" height="800px" width="800px" version="1.1" id="Capa_1"
	xmlns="http://www.w3.org/2000/svg" xmlns:xlink="http://www.w3.org/1999/xlink" viewBox="0 0 474.022 474.022"
	xml:space="preserve">
	<path
		d="M459.022,252.087h-3.015l-43.225-116.784c11.496-2.419,22.211-8.115,30.624-16.527c5.858-5.857,5.858-15.355,0-21.213
	c-5.857-5.857-15.355-5.857-21.213,0c-6.014,6.014-14.321,9.307-22.836,9.047c-8.33-0.259-15.91-3.79-21.345-9.945
	c-16.926-19.169-41.291-30.163-66.848-30.163c-22.68,0-43.402,8.519-59.152,22.517V50.504c0-8.284-6.716-15-15-15s-15,6.716-15,15
	v38.514c-15.751-13.998-36.472-22.517-59.152-22.517c-25.556,0-49.921,10.994-66.849,30.164c-5.435,6.154-13.015,9.686-21.344,9.944
	c-8.521,0.261-16.823-3.034-22.837-9.047c-5.857-5.857-15.355-5.857-21.213,0c-5.858,5.857-5.858,15.355,0,21.213
	c8.411,8.411,19.129,14.113,30.622,16.532l-43.223,116.78H15c-8.284,0-15,6.716-15,15v3.417c0,41.113,33.448,74.562,74.563,74.562
	h1.88c41.113,0,74.562-33.448,74.562-74.562v-3.417c0-8.284-6.716-15-15-15h-3.015L89.482,134.544
	c11.163-2.993,21.181-9.147,29.017-18.022c11.234-12.724,27.403-20.021,44.36-20.021c32.617,0,59.152,26.535,59.152,59.151v211.08
	c-20.352,5.38-36.405,21.434-41.786,41.786h-17.367c-8.284,0-15,6.716-15,15s6.716,15,15,15h148.305c8.284,0,15-6.716,15-15
	s-6.716-15-15-15h-17.367c-5.38-20.352-21.434-36.405-41.786-41.786v-211.08c0-32.616,26.535-59.151,59.152-59.151
	c16.957,0,33.125,7.297,44.359,20.021c7.836,8.875,17.854,15.03,29.017,18.022l-43.506,117.543h-3.015c-8.284,0-15,6.716-15,15
	v3.417c0,41.113,33.448,74.562,74.562,74.562h1.88c41.113,0,74.562-33.448,74.562-74.562v-3.417
	C474.022,258.803,467.307,252.087,459.022,252.087z M76.442,315.066h-1.88c-20.567,0-37.925-14.004-43.036-32.979h87.951
	C114.366,301.062,97.01,315.066,76.442,315.066z M39.341,252.087l36.161-97.697l36.161,97.697H39.341z M261.509,408.518h-48.994
	c5.059-8.231,14.147-13.734,24.497-13.734S256.449,400.287,261.509,408.518z M398.521,154.39l36.161,97.697H362.36L398.521,154.39z
	 M399.461,315.066h-1.88c-20.567,0-37.924-14.004-43.035-32.979h87.95C437.385,301.062,420.028,315.066,399.461,315.066z" />
</svg>